<svg width="77" height="68" viewBox="0 0 77 68" fill="none" xmlns="http://www.w3.org/2000/svg">
<path d="M75.2502 52.2501L47.0002 5.25013C45.7502 2.75013 43.5002 1.25013 41.0002 0.500134C38.5002 0.00013411 35.7502 0.250134 33.5002 1.75013C32.2502 2.50013 31.0002 3.75013 30.2502 5.25013L1.75015 52.2501C-0.999846 57.0001 0.750154 63.2501 5.50015 66.0001C7.00015 66.7501 8.75016 67.2501 10.5002 67.2501H67.0002C72.5002 67.2501 77.0002 62.7501 77.0002 57.2501C76.7502 55.5001 76.2502 53.7501 75.2502 52.2501ZM35.2502 24.0001C35.2502 22.2501 36.7502 20.7501 38.5002 20.7501C40.2502 20.7501 41.7502 22.2501 41.7502 24.0001V37.2501C41.7502 39.0001 40.2502 40.5001 38.5002 40.5001C36.7502 40.5001 35.2502 39.0001 35.2502 37.2501V24.0001ZM38.5002 54.0001C36.7502 54.0001 35.2502 52.5001 35.2502 50.7501C35.2502 49.0001 36.7502 47.5001 38.5002 47.5001C40.2502 47.5001 41.7502 49.0001 41.7502 50.7501C41.7502 52.5001 40.5002 54.0001 38.5002 54.0001Z" fill="#CB3168"/>
</svg>
