<svg xmlns="http://www.w3.org/2000/svg" viewBox="0 0 16 16">
  
<g transform="matrix(1.1428571428571428,0,0,1.1428571428571428,0,0)"><g>
    <path d="M3.5,6.5v6a1,1,0,0,0,1,1h5a1,1,0,0,0,1-1v-6" style="fill: none;stroke: none;stroke-linecap: round;stroke-linejoin: round"></path>
    <path d="M10.5,6.5v-2a1,1,0,0,0-1-1,1,1,0,0,1-1-1V2a1.5,1.5,0,0,0-3,0v.5a1,1,0,0,1-1,1,1,1,0,0,0-1,1v2" style="fill: none;stroke: none;stroke-linecap: round;stroke-linejoin: round"></path>
    <line x1="2.5" y1="6.5" x2="11.5" y2="6.5" style="fill: none;stroke: none;stroke-linecap: round;stroke-linejoin: round"></line>
    <line x1="7.5" y1="9.5" x2="10.5" y2="9.5" style="fill: none;stroke: none;stroke-linecap: round;stroke-linejoin: round"></line>
  </g></g></svg>