<svg width="16" height="16" viewBox="0 0 16 16" fill="none" xmlns="http://www.w3.org/2000/svg">
<path d="M14.7542 6.28564H1.24567C0.605667 6.28564 0.331381 5.58849 0.834238 5.25707L7.58852 0.834209C7.71323 0.760851 7.85527 0.722168 7.99995 0.722168C8.14463 0.722168 8.28668 0.760851 8.41138 0.834209L15.1657 5.25707C15.6685 5.58849 15.3942 6.28564 14.7542 6.28564Z" stroke="#767C91" stroke-width="1.14286" stroke-linecap="round" stroke-linejoin="round"/>
<path d="M14.8571 12.5713H1.14284C0.827248 12.5713 0.571411 12.8271 0.571411 13.1427V14.857C0.571411 15.1726 0.827248 15.4284 1.14284 15.4284H14.8571C15.1727 15.4284 15.4286 15.1726 15.4286 14.857V13.1427C15.4286 12.8271 15.1727 12.5713 14.8571 12.5713Z" stroke="#767C91" stroke-width="1.14286" stroke-linecap="round" stroke-linejoin="round"/>
<path d="M2.28577 6.28564V12.5714" stroke="#767C91" stroke-width="1.14286" stroke-linecap="round" stroke-linejoin="round"/>
<path d="M5.14282 6.28564V12.5714" stroke="#767C91" stroke-width="1.14286" stroke-linecap="round" stroke-linejoin="round"/>
<path d="M8 6.28564V12.5714" stroke="#767C91" stroke-width="1.14286" stroke-linecap="round" stroke-linejoin="round"/>
<path d="M10.8572 6.28564V12.5714" stroke="#767C91" stroke-width="1.14286" stroke-linecap="round" stroke-linejoin="round"/>
<path d="M13.7142 6.28564V12.5714" stroke="#767C91" stroke-width="1.14286" stroke-linecap="round" stroke-linejoin="round"/>
</svg>
