<?xml version="1.0" encoding="utf-8"?>
<!-- Generator: Adobe Illustrator 25.4.1, SVG Export Plug-In . SVG Version: 6.00 Build 0)  -->
<svg version="1.1" id="Layer_1" xmlns="http://www.w3.org/2000/svg" xmlns:xlink="http://www.w3.org/1999/xlink" x="0px" y="0px"
	 viewBox="0 0 24 24" style="enable-background:new 0 0 24 24;" xml:space="preserve">
<path d="M22,2h-5.2C14.7,2,13,3.3,13,5v1.8l0,9.9c0,0.5-0.5,1-1,1s-1-0.5-1-1L11,5c0-1.7-1.7-3-3.8-3H2C1.5,2,1,2.5,1,3v15
	c0,0.5,0.5,1,1,1h7c1.1,0,2,0.9,2,2c0,0.5,0.5,1,1,1s1-0.5,1-1c0-1.1,0.9-2,2-2h7c0.5,0,1-0.5,1-1V3C23,2.5,22.5,2,22,2z"/>
</svg>
