<svg width="411" height="536" viewBox="0 0 411 536" fill="none" xmlns="http://www.w3.org/2000/svg">
<path d="M223.639 305.521L251.932 321.454C251.932 321.454 235.625 349.583 228.156 359.811C220.688 370.039 191.988 408.645 189.368 412.858C186.748 417.072 184.399 418.979 183.57 417.539C182.742 416.099 180.672 408.645 185.159 401.666C189.646 394.686 208.965 359.879 208.965 359.879L223.639 305.521Z" fill="#FBFCFC" stroke="#1E264E" stroke-width="2" stroke-miterlimit="10" stroke-linecap="round" stroke-linejoin="round"/>
<path d="M294.003 203.407C294.003 203.407 284.705 212.278 283.538 212.866C282.379 213.446 283.538 215.195 287.318 223.78C291.097 232.365 294.146 239.638 295.742 240.799C297.339 241.96 299.959 240.362 302.571 241.236C305.184 242.11 306.93 245.743 306.93 247.055C306.93 248.366 294.575 261.458 292.836 262.476C291.09 263.493 287.024 266.84 282.228 268.001C277.432 269.161 269.873 268.875 269.873 268.875C269.873 268.875 277.312 259.83 279.781 257.501C282.251 255.172 284.11 248.072 283.245 247.055C282.371 246.037 278.592 241.236 276.273 238.764C273.946 236.292 259.709 211.562 257.24 202.103C254.77 192.643 278.456 175.187 278.456 175.187L294.003 203.407Z" fill="#FBFCFC" stroke="#1E264E" stroke-width="2" stroke-miterlimit="10" stroke-linecap="round" stroke-linejoin="round"/>
<path d="M283.109 250.688C283.109 250.688 280.346 258.542 282.529 260.433C284.713 262.325 289.938 262.182 292.701 260.727C295.464 259.273 302.149 248.947 301.999 246.618C301.856 244.289 299.672 240.942 299.672 240.942C299.672 240.942 300.982 240.648 303.738 242.397C306.501 244.146 307.518 246.904 307.081 248.072C306.644 249.241 295.456 260.29 294.146 261.745C292.836 263.2 291.677 267.707 285.571 268.581C279.465 269.455 269.881 268.875 269.881 268.875C269.881 268.875 277.063 263.576 279.676 259.212C282.296 254.841 283.109 250.688 283.109 250.688Z" fill="#CB3168" stroke="#1E264E" stroke-width="2" stroke-linecap="round" stroke-linejoin="round"/>
<path d="M256.803 241.959C256.803 241.959 263.489 256.069 263.489 258.979C263.489 261.888 257.97 268.287 255.93 268.867C253.897 269.448 248.958 275.266 246.338 278.327C243.726 281.379 242.559 283.565 243.432 284.582C244.305 285.6 255.93 286.18 260.146 283.422C264.362 280.656 267.268 274.988 270.024 272.802C272.787 270.616 281.212 265.822 282.959 263.056C284.705 260.29 283.538 256.22 281.212 253.891C278.885 251.562 276.853 246.037 276.853 246.037L256.803 241.959Z" fill="#FBFCFC" stroke="#1E264E" stroke-width="2" stroke-miterlimit="10" stroke-linecap="round" stroke-linejoin="round"/>
<path d="M280.783 214.607C280.783 214.607 281.506 228.717 280.203 237.445C278.901 246.173 273.954 256.499 273.954 256.499L234.428 228.28L280.783 214.607Z" fill="#FBFCFC" stroke="#1E264E" stroke-width="2" stroke-miterlimit="10" stroke-linecap="round" stroke-linejoin="round"/>
<path d="M313.089 214.434L311.38 241.274" stroke="#1E264E" stroke-width="6" stroke-miterlimit="10" stroke-linecap="round" stroke-linejoin="round"/>
<path d="M288.492 235.809C288.492 235.809 344.175 251.366 350.319 255.473C356.47 259.574 353.737 278.047 353.737 278.047" stroke="#1E264E" stroke-width="6" stroke-miterlimit="10" stroke-linecap="round" stroke-linejoin="round"/>
<path d="M326.927 242.645C326.927 242.645 327.951 228.453 325.73 228.279C323.509 228.106 308.647 242.133 300.448 254.102C292.249 266.071 291.135 272.952 290.374 278.899C289.524 285.57 289.012 291.381 289.012 291.381" stroke="#1E264E" stroke-width="6" stroke-miterlimit="10" stroke-linecap="round" stroke-linejoin="round"/>
<path d="M367.914 145.182C367.914 145.182 368.765 186.048 364.842 189.297C360.912 192.545 348.956 192.545 348.956 192.545" stroke="#1E264E" stroke-width="6" stroke-miterlimit="10" stroke-linecap="round" stroke-linejoin="round"/>
<path d="M335.638 181.94C335.638 181.94 344.838 181.074 349.303 188.437C351.802 192.56 350.838 202.63 349.129 206.391C347.42 210.152 344.514 211.351 341.104 212.202C337.686 213.054 300.621 218.873 294.816 218.013C289.012 217.162 284.058 214.765 282.175 213.393C280.293 212.029 281.837 202.622 285.594 198.688C289.35 194.769 335.638 181.94 335.638 181.94Z" fill="#FBFCFC" stroke="#1E264E" stroke-width="2" stroke-miterlimit="10" stroke-linecap="round" stroke-linejoin="round"/>
<path d="M292.219 207.145C292.219 207.145 297.203 208.788 308.82 207.763C320.437 206.738 345.884 204.002 349.814 199.043" stroke="#1E264E" stroke-width="2" stroke-miterlimit="10" stroke-linecap="round" stroke-linejoin="round"/>
<path d="M352.887 102.091C352.887 102.091 344.003 105.167 343.152 116.623C342.301 128.08 342.979 133.891 348.618 137.313C354.257 140.735 364.677 147.058 366.89 149.968C369.111 152.877 373.207 154.068 374.065 152.704C374.916 151.34 381.24 126.03 378.161 116.45C375.089 106.878 362.96 103.282 359.542 102.084C356.132 100.893 352.887 102.091 352.887 102.091Z" fill="#FBFCFC" stroke="#1E264E" stroke-width="2" stroke-miterlimit="10" stroke-linecap="round" stroke-linejoin="round"/>
<path d="M285.872 209.369L286.301 215.044L211.179 234.973V229.591L285.872 209.369Z" fill="#FBFCFC" stroke="#1E264E" stroke-width="2" stroke-miterlimit="10" stroke-linecap="round" stroke-linejoin="round"/>
<path d="M211.179 229.591L163.085 181.292V186.094L211.179 234.972V229.591Z" fill="#FBFCFC" stroke="#1E264E" stroke-width="2" stroke-miterlimit="10" stroke-linecap="round" stroke-linejoin="round"/>
<path d="M285.872 209.368L225.852 166.459L163.085 181.292L211.179 229.591L285.872 209.368Z" fill="#FBFCFC" stroke="#1E264E" stroke-width="2" stroke-miterlimit="10" stroke-linecap="round" stroke-linejoin="round"/>
<path d="M255.787 172.421L245.909 183.622C245.909 183.622 270.754 192.644 278.893 197.588C287.032 202.532 287.032 205.736 290.954 207.047C294.877 208.359 303.016 206.467 303.016 206.467C303.016 206.467 326.483 195.621 331.783 190.903C341.27 182.453 342.64 179.71 343.987 170.1C345.102 162.171 342.391 149.44 337.159 144.933C331.926 140.426 325.971 140.275 325.971 140.275L255.787 172.421Z" fill="#CB3168" stroke="#1E264E" stroke-width="2" stroke-linecap="round" stroke-linejoin="round"/>
<path d="M228.435 393.496C228.435 393.496 231.777 371.894 236.792 366.935C241.806 361.975 244.983 365.623 245.917 361.01C246.85 356.398 246.541 347.33 249.869 344.127C253.197 340.924 259.792 331.088 259.792 331.088C259.792 331.088 255.057 345.732 257.007 353.662C258.956 361.591 262.073 366.173 259.453 372.542C256.841 378.911 253.528 381.806 255.441 385.68C257.36 389.554 257.202 396.405 253.144 401.116C249.086 405.827 243.078 411.653 243.078 411.653L228.435 393.496Z" fill="#CB3168"/>
<path d="M264.347 425.43C265.439 424.707 281.761 418.165 283.945 402.909C286.121 387.654 287.935 381.843 292.294 376.755C296.646 371.667 298.829 362.954 298.829 356.412C298.829 349.87 294.839 328.803 294.839 328.803C294.839 328.803 290.849 348.784 286.489 351.324C282.138 353.864 271.612 361.13 270.521 366.58C269.429 372.029 270.521 369.12 258.55 374.569C246.579 380.019 242.581 396.005 242.581 396.005L264.347 425.43Z" fill="#CB3168"/>
<path d="M259.265 360.045C259.265 360.045 265.07 347.33 273.051 339.702C281.031 332.075 277.402 303.011 277.402 303.011C277.402 303.011 286.475 316.088 287.928 326.264C289.381 336.439 290.104 354.965 285.752 362.224C281.4 369.49 273.781 375.663 267.969 383.29C262.164 390.918 257.082 377.841 257.082 377.841L259.265 360.045Z" fill="#CB3168"/>
<path d="M256.141 403.158C256.141 403.158 258.399 380.863 264.535 375.685C270.671 370.515 283.26 358.561 283.26 358.561C283.26 358.561 272.283 372.459 272.283 378.919C272.283 385.386 270.348 393.458 270.348 393.458C270.348 393.458 276.484 391.845 277.447 388.936C278.419 386.026 277.447 395.403 275.512 401.214C273.578 407.025 262.277 414.464 262.277 414.464L256.141 403.158Z" fill="#FCCF32"/>
<path d="M201.436 374.781L217.435 442.065C217.435 442.065 263.843 431.287 267.886 428.664C271.936 426.041 249.071 361.425 249.071 361.425L201.436 374.781Z" fill="#FBFCFC" stroke="#1E264E" stroke-width="2" stroke-miterlimit="10" stroke-linecap="round" stroke-linejoin="round"/>
<path d="M197.664 227.842C197.664 227.842 192.575 237.151 201.301 244.138C210.027 251.125 231.092 261.737 233.562 266.689C236.031 271.641 236.468 284.582 232.109 301.458C227.75 318.334 220.778 350.48 216.998 359.789C213.219 369.097 202.611 389.026 197.235 394.121C191.86 399.216 189.097 401.831 186.19 406.919C183.284 412.014 183.578 417.539 183.578 417.539C183.578 417.539 133.157 392.229 132.721 392.229C132.284 392.229 131.99 385.393 135.627 381.315C139.263 377.245 150.594 372.293 156.549 364.733C162.505 357.166 169.484 351.061 170.5 346.259C171.517 341.458 182.268 315.131 185.174 304.511C188.08 293.891 196.076 269.892 193.749 265.378C191.423 260.87 178.202 247.484 177.623 242.683C177.035 237.882 197.664 227.842 197.664 227.842Z" fill="#FBFCFC" stroke="#1E264E" stroke-width="2" stroke-miterlimit="10" stroke-linecap="round" stroke-linejoin="round"/>
<path d="M108.072 295.142C108.072 295.142 128.317 329.474 136.651 339.25C144.985 349.026 223.105 413.401 232.395 420.795C241.686 428.189 250.735 433.91 250.735 433.91C250.735 433.91 192.62 449.173 185.475 448.457C178.331 447.741 138.797 417.456 130.455 408.163C122.12 398.862 84.9354 364.635 78.5359 354.513C74.0111 347.36 73.7701 336.152 75.9384 326.452C78.7693 313.729 108.072 295.142 108.072 295.142Z" fill="#FBFCFC" stroke="#1E264E" stroke-width="2" stroke-miterlimit="10" stroke-linecap="round" stroke-linejoin="round"/>
<path d="M220.786 177.644C220.786 177.644 214.815 179.604 206.707 180.41C198.598 181.217 188.517 179.287 187.056 181.028C186.401 181.805 185.679 184.601 185.588 186.124C185.498 187.646 185.837 190.05 186.544 191.656C187.26 193.261 189.503 196.11 188.833 196.977C188.163 197.844 186.974 198.16 185.679 197.392C184.384 196.623 182.757 194.196 181.583 192.41C180.732 191.113 179.904 190.005 179.038 189.236C178.172 188.468 175.545 186.885 174.717 187.314C173.565 187.91 173.52 190.586 173.663 191.498C173.806 192.41 174.092 194.784 174.092 194.784C174.092 194.784 173.715 196.502 171.156 198.145C168.596 199.796 165.411 197.949 165.411 197.949C165.411 197.949 165.215 193.171 165.14 190.978C165.057 188.347 165.584 187.495 166.036 186.402C166.488 185.31 168.686 183.455 170.561 181.797C172.586 180.003 176.403 176.28 179.422 174.094C182.441 171.908 185.528 170.167 190.859 169.27C196.189 168.373 208.611 163.783 208.611 163.783C208.611 163.783 217.413 164.575 220.424 168.599C223.436 172.609 220.786 177.644 220.786 177.644Z" fill="#FBFCFC" stroke="#1E264E" stroke-width="2" stroke-miterlimit="10" stroke-linecap="round" stroke-linejoin="round"/>
<path d="M224.761 138.76C224.761 138.76 229.353 143.463 232.169 150.36C234.985 157.256 235.09 162.585 234.571 166.346C234.051 170.107 233.11 173.137 229.767 174.388C226.425 175.639 220.379 178.775 220.379 178.775C220.379 178.775 218.813 172.089 214.747 168.743C210.674 165.396 206.609 163.625 206.609 163.625C206.609 163.625 213.385 161.371 213.279 159.804C213.174 158.236 212.557 157.987 212.24 156.623C211.924 155.259 210.885 150.774 210.885 150.774L224.761 138.76Z" fill="#FCCF32" stroke="#1E264E" stroke-width="2" stroke-linecap="round" stroke-linejoin="round"/>
<path d="M227.23 139.725C227.23 139.725 234.427 140.102 237.574 139.122C237.574 139.122 243.703 141.745 240.36 126.949C237.017 112.154 229.752 113.111 226.183 112.636C222.607 112.161 217.367 121.462 218.436 125.758C219.513 130.055 227.23 139.725 227.23 139.725Z" fill="#FBFCFC" stroke="#1E264E" stroke-width="2" stroke-miterlimit="10" stroke-linecap="round" stroke-linejoin="round"/>
<path d="M225.385 136.355C225.385 136.355 228.216 144.194 228.653 146.922C229.044 149.357 228.811 156.789 228.811 156.789C230.588 158.221 238.659 161.288 241.414 161.801C248.386 163.112 248.868 164.454 255.44 168.11C262.013 171.765 254.394 140.003 254.394 140.003L244.9 135.3L225.385 136.355Z" fill="#FCCF32" stroke="#1E264E" stroke-width="2" stroke-linecap="round" stroke-linejoin="round"/>
<path d="M218.497 98.6391C218.497 98.6391 235.61 96.7623 240.097 97.8025C244.584 98.8501 251.262 102.295 255.441 104.277C259.619 106.259 275.272 113.156 287.062 117.965C298.852 122.773 311.9 125.698 317.433 128.622C322.967 131.547 331.211 137.395 333.086 141.684C334.96 145.965 332.039 163.625 330.375 171.042C328.704 178.458 326.099 191.935 325.994 194.023C325.888 196.11 324.013 199.562 324.013 199.562C324.013 199.562 315.875 194.965 308.045 194.445C300.215 193.925 285.918 193.714 274.752 190.058C263.587 186.402 259.1 180.554 253.257 173.235C247.415 165.924 238.23 156.623 238.23 156.623C238.23 156.623 242.198 153.91 240.105 144.398C238.012 134.886 231.115 119.608 227.147 114.075C223.172 108.535 218.497 98.6391 218.497 98.6391Z" fill="#FCCF32" stroke="#1E264E" stroke-width="2" stroke-linecap="round" stroke-linejoin="round"/>
<path d="M169.327 197.746C169.327 197.746 168.942 194.083 168.746 192.666" stroke="#1E264E" stroke-width="2" stroke-miterlimit="10" stroke-linecap="round" stroke-linejoin="round"/>
<path d="M251.782 136.174C252.43 133.077 254.477 130.31 262.676 129.723C270.875 129.135 279.428 133.356 282.244 138.398C285.052 143.44 285.76 147.073 287.514 151.181C289.268 155.289 290.797 160.211 290.909 162.909C291.022 165.607 292.551 171.825 293.838 175.813C295.126 179.8 295.126 184.021 294.305 185.784C293.484 187.541 280.949 192.937 276.266 193.992C271.583 195.048 264.551 195.515 264.551 195.515C264.551 195.515 263.964 186.485 262.676 184.021C261.389 181.556 260.214 180.034 260.214 180.034L270.521 176.514C270.521 176.514 269.113 174.049 267.593 172.76C266.072 171.471 263.489 169.949 260.915 165.954C258.34 161.967 257.399 159.148 254.703 153.872C252.023 148.603 250.871 140.569 251.782 136.174Z" fill="#FCCF32" stroke="#1E264E" stroke-width="2" stroke-linecap="round" stroke-linejoin="round"/>
<path d="M195.534 143.938C195.534 143.938 199.336 147.247 200.804 149.455C202.272 151.663 202.521 153.382 203.748 153.751C204.975 154.121 207.67 150.932 207.67 150.932C207.67 150.932 210.366 153.141 210.855 153.141C211.344 153.141 213.43 152.04 213.43 152.04C213.43 152.04 216.374 153.02 218.58 151.92C220.786 150.819 225.438 145.784 226.666 140.998C227.328 138.405 227.403 137.32 227.403 137.32C227.403 137.32 225.725 128.509 220.959 128.155C216.178 127.793 195.534 143.938 195.534 143.938Z" fill="#FBFCFC" stroke="#1E264E" stroke-width="2" stroke-miterlimit="10" stroke-linecap="round" stroke-linejoin="round"/>
<path d="M203.868 146.395C203.868 146.395 206.195 146.025 206.684 143.576" stroke="#1E264E" stroke-width="2" stroke-miterlimit="10" stroke-linecap="round" stroke-linejoin="round"/>
<path d="M195.684 144.609C195.684 144.609 194.623 145.053 192.703 148.89C190.791 152.726 189.315 152.877 189.315 152.877C189.315 152.877 190.151 145.739 183.42 141.956C179.874 139.966 183.571 134.727 181.508 131.773C179.445 128.818 173.994 125.283 174.875 121.884C175.756 118.492 177.231 116.133 177.231 116.133C177.231 116.133 174.137 110.525 177.525 105.068C180.913 99.6115 190.587 101.647 193.358 96.9207C196.799 91.0643 198.342 89.5192 203.462 88.3961C207.392 87.5294 211.412 88.1399 214.168 89.6925C216.765 91.1548 218.941 96.6569 220.56 98.285C222.178 99.9055 222.916 96.5137 222.916 96.5137C222.916 96.5137 229.105 102.566 229.692 107.729C230.279 112.892 228.367 118.055 227.479 121.153C226.598 124.251 227.185 132.662 226.154 134.283C225.122 135.903 222.909 137.381 220.108 137.531C217.307 137.682 214.364 135.466 211.856 137.825C209.349 140.184 209.794 142.106 204.636 142.988C199.487 143.87 195.684 144.609 195.684 144.609Z" fill="#1E264E"/>
<path d="M277.251 203.225C277.251 203.225 220.288 217.29 208.197 224.314C196.106 231.347 159.237 260.832 143.63 273.141C128.022 285.441 90.1824 314.934 84.7165 319.623C79.2506 324.311 75.9379 326.459 75.9379 326.459L88.4207 251.659C88.4207 251.659 102.078 240.723 110.661 232.522C119.244 224.322 136.214 203.225 144.797 200.693C153.379 198.153 186.935 194.052 196.294 190.344C205.652 186.636 242.528 178.239 242.528 178.239L277.251 203.225Z" fill="#FBFCFC" stroke="#1E264E" stroke-width="2" stroke-miterlimit="10" stroke-linecap="round" stroke-linejoin="round"/>
<path d="M260.221 180.041C260.221 180.041 252.053 184.45 244.087 184.518C236.122 184.586 226.658 184.247 222.773 184.654C218.896 185.061 213.783 186.154 211.066 187.111C208.34 188.068 203.913 189.907 204.124 191.407C204.327 192.907 206.669 193.985 207.482 194.038C207.61 194.045 206.759 194.415 206.977 196.178C207.151 197.535 209.131 198.281 210.584 198.221C211.63 198.176 212.353 198.153 212.353 198.153C212.353 198.153 212.142 199.947 213.716 200.678C216.027 201.748 217.367 201.311 217.367 201.311C217.367 201.311 218.21 202.992 223.518 202.788C228.826 202.585 234.887 202.042 238.501 200.263C242.107 198.492 246.127 197.95 252.527 196.721C258.926 195.492 265.943 194.611 265.943 194.611" fill="#FBFCFC"/>
<path d="M260.221 180.041C260.221 180.041 252.053 184.45 244.087 184.518C236.122 184.586 226.658 184.247 222.773 184.654C218.896 185.061 213.783 186.154 211.066 187.111C208.34 188.068 203.913 189.907 204.124 191.407C204.327 192.907 206.669 193.985 207.482 194.038C207.61 194.045 206.759 194.415 206.977 196.178C207.151 197.535 209.131 198.281 210.584 198.221C211.63 198.176 212.353 198.153 212.353 198.153C212.353 198.153 212.142 199.947 213.716 200.678C216.027 201.748 217.367 201.311 217.367 201.311C217.367 201.311 218.21 202.992 223.518 202.788C228.826 202.585 234.887 202.042 238.501 200.263C242.107 198.492 246.127 197.95 252.527 196.721C258.926 195.492 265.943 194.611 265.943 194.611" stroke="#1E264E" stroke-width="2" stroke-miterlimit="10" stroke-linecap="round" stroke-linejoin="round"/>
<path d="M207.482 194.038C207.482 194.038 209.349 193.028 212.948 191.988C216.299 191.023 218.964 190.45 218.964 190.45" fill="#FBFCFC"/>
<path d="M207.482 194.038C207.482 194.038 209.349 193.028 212.948 191.988C216.299 191.023 218.964 190.45 218.964 190.45" stroke="#1E264E" stroke-width="2" stroke-miterlimit="10" stroke-linecap="round" stroke-linejoin="round"/>
<path d="M211.887 198.168C211.887 198.168 213.174 197.407 216.577 196.653C219.98 195.907 220.68 195.764 220.68 195.764" fill="#FBFCFC"/>
<path d="M211.887 198.168C211.887 198.168 213.174 197.407 216.577 196.653C219.98 195.907 220.68 195.764 220.68 195.764" stroke="#1E264E" stroke-width="2" stroke-miterlimit="10" stroke-linecap="round" stroke-linejoin="round"/>
<path d="M217.345 201.243C217.345 201.243 218.632 200.482 222.035 199.728Z" fill="#FBFCFC"/>
<path d="M217.345 201.243C217.345 201.243 218.632 200.482 222.035 199.728" stroke="#1E264E" stroke-width="2" stroke-miterlimit="10" stroke-linecap="round" stroke-linejoin="round"/>
<path d="M218.098 184.903C218.098 184.903 210.953 184.194 210.087 184.39C209.221 184.593 208.619 185.257 209.221 186.056C209.824 186.855 209.921 187.043 209.921 187.043" fill="#FBFCFC"/>
<path d="M218.098 184.903C218.098 184.903 210.953 184.194 210.087 184.39C209.221 184.593 208.619 185.257 209.221 186.056C209.824 186.855 209.921 187.043 209.921 187.043" stroke="#1E264E" stroke-width="2" stroke-miterlimit="10" stroke-linecap="round" stroke-linejoin="round"/>
<path d="M256.803 267.85C256.803 267.85 251.134 271.339 249.101 273.962C247.068 276.585 240.962 283.128 240.962 284.288C240.962 285.449 242.272 285.886 247.211 285.6C252.15 285.306 258.083 284.386 260.146 283.414C265.318 280.987 270.137 274.324 271.59 272.432C273.043 270.54 281.505 265.37 282.958 263.048C284.411 260.719 282.228 255.187 281.498 253.732C280.767 252.278 281.61 257.84 278.877 260.802C277.507 262.295 273.366 264.797 269.881 268.867C266.395 272.937 262.909 279.05 260.869 278.326C258.836 277.595 254.183 274.98 254.04 272.802C253.897 270.616 256.803 267.85 256.803 267.85Z" fill="#CB3168" stroke="#1E264E" stroke-width="2" stroke-linecap="round" stroke-linejoin="round"/>
<path d="M222.171 184.669L236.332 176.74C236.829 176.461 237.454 176.619 237.755 177.102C238.094 177.629 237.906 178.338 237.349 178.632L226.756 184.443" fill="#1E264E"/>
<path d="M206.94 195.885L201.79 198.651C201.293 198.93 198.906 199.148 198.906 199.148C198.906 199.148 200.209 197.053 200.766 196.767L206.142 193.593" fill="#1E264E"/>
<path d="M147.839 422.627C139.135 413.861 133.85 402.164 133.526 389.81C133.413 385.521 133.873 381.029 135.454 376.823C141.537 360.611 128.73 355.847 128.158 350.451C127.142 340.78 127.375 323.784 127.375 323.784C127.375 323.784 120.494 336.906 119.809 350.081C119.44 357.129 120.23 365.992 120.23 365.992C120.23 365.992 114.825 373.613 108.937 368.842C103.05 364.07 98.5248 360.407 90.3936 357.95C82.2625 355.493 76.0136 343.305 73.5968 336.092C71.1801 328.887 69.9529 329.015 64.1707 321.334C58.3886 313.654 49.7831 290.937 49.9186 292.165C50.0466 293.394 48.5032 310.142 52.9904 321.274C57.4776 332.407 56.7247 344.926 56.273 352.433C55.8212 359.94 57.3345 374.291 61.1291 378.866C64.9236 383.441 68.1384 394.295 68.1384 394.295C68.1384 394.295 58.4563 392.832 53.8863 380.878C49.3163 368.924 48.2548 362.819 44.0537 358.289C39.8526 353.76 32 350.029 32 350.029C32 350.029 41.7875 364.334 42.9319 371.261C44.0763 378.188 39.2051 386.991 46.2144 394.543C53.2238 402.096 58.9382 405.224 60.188 409.234C61.4377 413.243 68.3643 427.85 94.1204 432.591C119.877 437.332 152.815 427.632 152.815 427.632L147.839 422.627Z" fill="#CB3168"/>
<path d="M132.209 424.073C132.209 424.073 105.828 424.541 98.57 417.011C91.3122 409.481 86.2528 392.131 86.2528 392.131C86.2528 392.131 92.9534 400.889 97.6665 402.02C102.387 403.15 98.3366 392.078 93.9397 388.242C89.5429 384.413 76.2394 372.18 74.4325 365.66C72.6256 359.14 64.5547 344.171 64.5547 344.171C64.5547 344.171 79.8156 368.577 88.2028 371.388C96.5899 374.2 105.896 377.998 110.277 384.104C114.659 390.209 117.881 396.118 118.649 400.912C119.432 405.698 132.209 424.073 132.209 424.073Z" fill="#FCCF32"/>
</svg>
