<svg width="32" height="32" viewBox="0 0 32 32" fill="none" xmlns="http://www.w3.org/2000/svg">
<path d="M25.9 4.10012C25.4 3.90012 24.9 3.90012 24.5 4.30012L11.2 15.0001C10.9 15.3001 10.7 15.6001 10.7 16.0001C10.7 16.4001 10.9 16.8001 11.2 17.0001L24.5 27.7001C24.7 27.9001 25 28.0001 25.3 28.0001C25.5 28.0001 25.7 28.0001 25.9 27.9001C26.4 27.7001 26.7 27.2001 26.7 26.7001V5.30012C26.7 4.80012 26.4 4.40012 25.9 4.10012Z" fill="#464D6F"/>
<path d="M6.6999 5.2998C5.9999 5.2998 5.3999 5.8998 5.3999 6.5998V25.2998C5.3999 25.9998 5.9999 26.5998 6.6999 26.5998C7.3999 26.5998 7.9999 26.0998 7.9999 25.2998V6.6998C7.9999 5.8998 7.3999 5.2998 6.6999 5.2998Z" fill="#464D6F"/>
</svg>
