<svg width="32" height="32" viewBox="0 0 32 32" fill="none" xmlns="http://www.w3.org/2000/svg">
<path d="M7.50005 4.30015C7.10005 4.00015 6.60005 3.90015 6.10005 4.10015C5.60005 4.40015 5.30005 4.80015 5.30005 5.30015V26.6001C5.30005 27.1001 5.60005 27.6001 6.10005 27.8001C6.30005 28.0001 6.50005 28.0001 6.70005 28.0001C7.00005 28.0001 7.30005 27.9001 7.50005 27.7001L20.8 17.0001C21.1 16.7001 21.3 16.4001 21.3 16.0001C21.3 15.6001 21.1 15.2001 20.8 15.0001L7.50005 4.30015Z" fill="white"/>
<path d="M25.3 5.2998C24.6 5.2998 24 5.8998 24 6.5998V25.2998C24 25.9998 24.6 26.5998 25.3 26.5998C26 26.5998 26.6 25.9998 26.6 25.2998V6.6998C26.7 5.8998 26.1 5.2998 25.3 5.2998Z" fill="white"/>
</svg>
