<svg width="30" height="29" viewBox="0 0 30 29" fill="none" xmlns="http://www.w3.org/2000/svg">
<path d="M29.6 10.8998C29.4 10.3998 29 10.0998 28.5 9.9998L20 8.7998L16.2 1.0998C16 0.599805 15.5 0.299805 15 0.299805C14.5 0.299805 14 0.599805 13.8 0.999805L9.99996 8.7998L1.49996 9.9998C0.999964 10.0998 0.599964 10.3998 0.399964 10.8998C0.199964 11.3998 0.399964 11.8998 0.699964 12.2998L6.89996 18.2998L5.39996 26.7998C5.29996 27.2998 5.49996 27.7998 5.89996 28.0998C6.29996 28.3998 6.89996 28.3998 7.29996 28.1998L14.9 24.1998L22.5 28.1998C22.7 28.2998 22.9 28.3998 23.1 28.3998C23.4 28.3998 23.7 28.2998 23.9 28.0998C24.3 27.7998 24.5 27.2998 24.4 26.7998L22.9 18.2998L29.1 12.2998C29.6 11.9998 29.8 11.3998 29.6 10.8998Z" fill="#BBC0CE"/>
</svg>
